:SAMPLES-PER-SECOND 30
:FRAME-RANGE 1-1700
:FULLY-SPECIFIED
:DEGREES
1276
root  -17.9954 34.5575 5.28186 161.008 2.55573 171.129
RightUpLeg  -15.4008 -3.41874 -2.76849
RightLeg  59.0214 -3.30667 -6.41579
RightFoot  -29.2872 -0.319608 -0.764574
RightToes  6.35937e-011 1.2921e-014 -6.02303e-014
Spine  19.8388 1.37816 0.400017
Spine1  2.36504 -1.06615 7.08379
HEad  15.2231 24.4302 -9.04669
LeftShoulder1  2.61503 -12.1376 -9.83519
LeftArm  25.0481 -42.3108 -92.7103
LeftForeArm  74.2777 5.09145 -14.6229
LeftHand  -0.128018 12.747 -0.879771
RightShoulder  3.46834 9.23369 21.4815
RightArm  -11.4463 36.2461 69.4375
RightForeArm  90.034 -4.74946 5.34134
RightHand  0.535216 -9.33157 -16.3597
LeftUpLeg  -90.1449 8.38946 -47.9463
LeftLeg  106.513 -1.77574 4.42338
LeftFoot  -26.226 -0.655616 -6.22016
LeftToes  -1.9349e-011 5.45182e-011 1.33515e-010
1277
root  -17.9339 33.8039 4.63294 161.463 3.42995 170.843
RightUpLeg  -17.2229 -2.28097 -2.41462
RightLeg  63.868 -2.92385 -7.06918
RightFoot  -32.5264 -0.243136 -0.116168
RightToes  6.35937e-011 1.2921e-014 -6.02303e-014
Spine  20.3514 1.58145 0.278046
Spine1  1.68895 -0.64969 6.43719
HEad  14.5527 24.9892 -8.23088
LeftShoulder1  2.53391 -12.2266 -9.14371
LeftArm  26.9331 -41.8562 -92.6001
LeftForeArm  71.2845 4.805 -14.997
LeftHand  -0.14662 12.4314 -1.24075
RightShoulder  3.41311 9.03129 21.4872
RightArm  -10.7316 34.7732 69.3192
RightForeArm  88.7143 -4.96667 6.30449
RightHand  0.471963 -8.93504 -16.1206
LeftUpLeg  -91.3493 8.56077 -48.4484
LeftLeg  108.594 -1.82062 4.04628
LeftFoot  -26.3103 -0.645803 -6.1142
LeftToes  -1.9349e-011 5.45182e-011 1.33515e-010
1278
root  -17.9443 33.4155 4.10217 161.964 5.72182 169.469
RightUpLeg  -18.7241 -0.335388 -3.11784
RightLeg  66.7832 -2.34407 -6.67848
RightFoot  -34.4723 -0.258074 -0.112524
RightToes  6.35937e-011 1.2921e-014 -6.02303e-014
Spine  20.4735 1.73914 0.406905
Spine1  1.61754 -0.0835876 4.7529
HEad  13.4493 26.6644 -8.8039
LeftShoulder1  2.41027 -11.5667 -9.02677
LeftArm  24.6314 -41.6203 -91.1313
LeftForeArm  70.9476 5.20971 -14.7021
LeftHand  -0.172538 12.2276 -1.71768
RightShoulder  3.52636 9.41361 21.5515
RightArm  -10.2324 34.4 70.2531
RightForeArm  88.2466 -5.03572 6.59945
RightHand  0.484673 -8.91355 -16.602
LeftUpLeg  -93.4828 9.92509 -49.3874
LeftLeg  109.124 -1.73498 3.71014
LeftFoot  -26.5612 -0.655402 -6.09549
LeftToes  -1.9349e-011 5.45182e-011 1.33515e-010
1279
root  -18.0325 33.2379 3.58862 162.085 7.03095 168.383
RightUpLeg  -19.1256 1.10179 -4.10475
RightLeg  68.5441 -1.99022 -6.34699
RightFoot  -35.793 -0.199478 0.207173
RightToes  6.35937e-011 1.2921e-014 -6.02303e-014
Spine  20.7627 1.78635 0.102639
Spine1  1.41754 -0.0500968 4.85437
HEad  13.8683 28.0831 -10.0844
LeftShoulder1  2.40153 -11.2455 -9.36055
LeftArm  23.8479 -41.4949 -90.2797
LeftForeArm  70.8681 5.31733 -14.6144
LeftHand  -0.157681 12.1115 -1.51177
RightShoulder  3.58307 9.54027 21.7315
RightArm  -10.308 34.5529 70.4067
RightForeArm  88.6077 -4.99515 6.45026
RightHand  0.516986 -9.06702 -16.9122
LeftUpLeg  -94.4465 10.3037 -50.0006
LeftLeg  108.467 -2.21615 5.12567
LeftFoot  -26.3938 -0.58957 -5.65912
LeftToes  -1.9349e-011 5.45182e-011 1.33515e-010
1280
root  -18.1411 33.2044 3.07018 162.406 7.36204 168.129
RightUpLeg  -18.8951 1.55339 -4.57473
RightLeg  69.2649 -1.91083 -6.37824
RightFoot  -36.7163 -0.117791 0.59134
RightToes  6.35937e-011 1.2921e-014 -6.02303e-014
Spine  20.6171 1.58001 0.368809
Spine1  1.16067 -0.426949 5.64812
HEad  14.5669 28.7239 -10.7903
LeftShoulder1  2.38135 -11.2809 -9.16116
LeftArm  23.3474 -41.3981 -90.1818
LeftForeArm  69.8416 5.44859 -14.5553
LeftHand  -0.134493 11.8525 -1.19726
RightShoulder  3.56188 9.38152 21.9253
RightArm  -10.1007 34.8933 70.0364
RightForeArm  88.91 -4.99893 6.55843
RightHand  0.524125 -9.15149 -16.7656
LeftUpLeg  -94.7231 9.45844 -49.8411
LeftLeg  107.646 -2.481 6.09843
LeftFoot  -26.5954 -0.557752 -5.35559
LeftToes  -1.9349e-011 5.45182e-011 1.33515e-010
